<svg width="52" height="52" viewBox="0 0 52 52" fill="none" xmlns="http://www.w3.org/2000/svg">
<g clip-path="url(#clip0_3737_2272)">
<mask id="path-1-inside-1_3737_2272" fill="white">
<path d="M0 10.3299C0 4.62486 4.62486 0 10.3299 0H41.6701C47.3751 0 52 4.62486 52 10.3299V41.6701C52 47.3751 47.3751 52 41.6701 52H10.3299C4.62486 52 0 47.3751 0 41.6701V10.3299Z"/>
</mask>
<path d="M0 10.3299C0 4.62486 4.62486 0 10.3299 0H41.6701C47.3751 0 52 4.62486 52 10.3299V41.6701C52 47.3751 47.3751 52 41.6701 52H10.3299C4.62486 52 0 47.3751 0 41.6701V10.3299Z" fill="#1D8FF3"/>
<path d="M10.3299 3H41.6701V-3H10.3299V3ZM49 10.3299V41.6701H55V10.3299H49ZM41.6701 49H10.3299V55H41.6701V49ZM3 41.6701V10.3299H-3V41.6701H3ZM10.3299 49C6.28171 49 3 45.7183 3 41.6701H-3C-3 49.032 2.96801 55 10.3299 55V49ZM49 41.6701C49 45.7183 45.7183 49 41.6701 49V55C49.032 55 55 49.032 55 41.6701H49ZM41.6701 3C45.7183 3 49 6.28171 49 10.3299H55C55 2.968 49.032 -3 41.6701 -3V3ZM10.3299 -3C2.968 -3 -3 2.96801 -3 10.3299H3C3 6.28171 6.28171 3 10.3299 3V-3Z" fill="url(#paint0_linear_3737_2272)" mask="url(#path-1-inside-1_3737_2272)"/>
<path fill-rule="evenodd" clip-rule="evenodd" d="M34.8226 10.8464C36.2009 10.8464 37.2924 11.2436 38.102 12.0274C38.5047 12.4196 38.8215 12.8943 39.0317 13.4202C39.2419 13.9461 39.3406 14.5114 39.3215 15.079V40.2928C39.3215 40.7682 38.9361 41.1536 38.4607 41.1536H31.7071C31.2317 41.1536 30.8463 40.7682 30.8463 40.2928V30.1842C30.8463 29.7088 30.4609 29.3234 29.9854 29.3234H22.0123C21.5369 29.3234 21.1515 29.7088 21.1515 30.1842V40.2928C21.1515 40.7682 20.7661 41.1536 20.2907 41.1536H13.5371C13.0617 41.1536 12.6763 40.7682 12.6763 40.2928V12.5046C12.6763 12.1772 12.8614 11.8759 13.1596 11.7407C14.4724 11.1458 15.6379 10.8464 16.6526 10.8464C18.0309 10.8464 19.1224 11.2436 19.932 12.0274C20.3349 12.4194 20.652 12.8941 20.8621 13.42C21.0723 13.946 21.171 14.5114 21.1515 15.079V21.8995C21.1515 22.3749 21.5369 22.7603 22.0123 22.7603H29.9854C30.4609 22.7603 30.8463 22.3749 30.8463 21.8995V12.5038C30.8463 12.1768 31.0309 11.8758 31.3287 11.7406C32.6385 11.1457 33.808 10.8464 34.8226 10.8464Z" fill="url(#paint1_linear_3737_2272)"/>
<path d="M39.003 11.1024L39.0001 11.0997C37.9012 10.0358 36.462 9.5552 34.8226 9.5552C33.5636 9.5552 32.2071 9.92347 30.7947 10.5649C30.013 10.92 29.555 11.6958 29.555 12.5038V21.4691H22.4427V15.0996C22.4648 14.3615 22.3351 13.6262 22.0612 12.9408C21.7843 12.2481 21.3661 11.6211 20.8324 11.1019L20.8301 11.0997C19.7312 10.0358 18.292 9.5552 16.6526 9.5552C15.3929 9.5552 14.0404 9.92391 12.6266 10.5647C11.8442 10.9193 11.385 11.6954 11.385 12.5046V40.2928C11.385 41.4813 12.3485 42.4449 13.5371 42.4449H20.2907C21.4792 42.4449 22.4427 41.4814 22.4427 40.2928V30.6146H29.555V40.2928C29.555 41.4813 30.5185 42.4449 31.7071 42.4449H38.4607C39.6492 42.4449 40.6127 41.4813 40.6127 40.2928V15.0993C40.6344 14.3613 40.5046 13.6263 40.2307 12.941C39.954 12.2486 39.5361 11.6217 39.003 11.1024Z" stroke="url(#paint2_linear_3737_2272)" stroke-opacity="0.26" stroke-width="2.58248"/>
</g>
<defs>
<linearGradient id="paint0_linear_3737_2272" x1="31.4771" y1="4.08872" x2="4.52516" y2="64.4098" gradientUnits="userSpaceOnUse">
<stop stop-color="white" stop-opacity="0"/>
<stop offset="0.932292" stop-color="white" stop-opacity="0.49"/>
<stop offset="1" stop-color="white" stop-opacity="0.24"/>
</linearGradient>
<linearGradient id="paint1_linear_3737_2272" x1="39.3238" y1="-4.66249" x2="12.6763" y2="32.5988" gradientUnits="userSpaceOnUse">
<stop stop-color="white"/>
<stop offset="0.958333" stop-color="#FCFDFF"/>
<stop offset="1" stop-color="white"/>
</linearGradient>
<linearGradient id="paint2_linear_3737_2272" x1="33.1233" y1="9.13779" x2="13.8494" y2="53.2163" gradientUnits="userSpaceOnUse">
<stop stop-color="white"/>
<stop offset="1" stop-color="white" stop-opacity="0"/>
</linearGradient>
<clipPath id="clip0_3737_2272">
<rect width="52" height="52" fill="white"/>
</clipPath>
</defs>
</svg>
